<svg xmlns="http://www.w3.org/2000/svg" width="194.549" height="202.235" viewBox="0 0 194.549 202.235">
  <g id="dots-upgrade" opacity="0.1">
    <path id="Path_37777" data-name="Path 37777" d="M385.629,192.777a2.945,2.945,0,1,1-2.943-2.946A2.944,2.944,0,0,1,385.629,192.777Z" transform="translate(-379.74 -189.831)" fill="#8494e2"/>
    <path id="Path_37778" data-name="Path 37778" d="M396.284,192.777a2.946,2.946,0,1,1-2.946-2.946A2.949,2.949,0,0,1,396.284,192.777Z" transform="translate(-358.947 -189.831)" fill="#8494e2"/>
    <path id="Path_37779" data-name="Path 37779" d="M406.935,192.777a2.946,2.946,0,1,1-2.946-2.946A2.947,2.947,0,0,1,406.935,192.777Z" transform="translate(-338.156 -189.831)" fill="#8494e2"/>
    <path id="Path_37780" data-name="Path 37780" d="M417.586,192.777a2.946,2.946,0,1,1-2.946-2.946A2.947,2.947,0,0,1,417.586,192.777Z" transform="translate(-317.366 -189.831)" fill="#8494e2"/>
    <path id="Path_37781" data-name="Path 37781" d="M428.236,192.777a2.945,2.945,0,1,1-2.946-2.946A2.949,2.949,0,0,1,428.236,192.777Z" transform="translate(-296.571 -189.831)" fill="#8494e2"/>
    <path id="Path_37782" data-name="Path 37782" d="M438.889,192.777a2.946,2.946,0,1,1-2.946-2.946A2.947,2.947,0,0,1,438.889,192.777Z" transform="translate(-275.782 -189.831)" fill="#8494e2"/>
    <path id="Path_37783" data-name="Path 37783" d="M449.538,192.777a2.945,2.945,0,1,1-2.946-2.946A2.947,2.947,0,0,1,449.538,192.777Z" transform="translate(-254.99 -189.831)" fill="#8494e2"/>
    <path id="Path_37784" data-name="Path 37784" d="M385.629,203.864a2.945,2.945,0,1,1-2.943-2.946A2.942,2.942,0,0,1,385.629,203.864Z" transform="translate(-379.74 -168.189)" fill="#8494e2"/>
    <path id="Path_37785" data-name="Path 37785" d="M396.284,203.864a2.946,2.946,0,1,1-2.946-2.946A2.946,2.946,0,0,1,396.284,203.864Z" transform="translate(-358.947 -168.189)" fill="#8494e2"/>
    <path id="Path_37786" data-name="Path 37786" d="M406.935,203.864a2.946,2.946,0,1,1-2.946-2.946A2.944,2.944,0,0,1,406.935,203.864Z" transform="translate(-338.156 -168.189)" fill="#8494e2"/>
    <path id="Path_37787" data-name="Path 37787" d="M417.586,203.864a2.946,2.946,0,1,1-2.946-2.946A2.944,2.944,0,0,1,417.586,203.864Z" transform="translate(-317.366 -168.189)" fill="#8494e2"/>
    <path id="Path_37788" data-name="Path 37788" d="M428.236,203.864a2.945,2.945,0,1,1-2.946-2.946A2.946,2.946,0,0,1,428.236,203.864Z" transform="translate(-296.571 -168.189)" fill="#8494e2"/>
    <path id="Path_37789" data-name="Path 37789" d="M438.889,203.864a2.946,2.946,0,1,1-2.946-2.946A2.944,2.944,0,0,1,438.889,203.864Z" transform="translate(-275.782 -168.189)" fill="#8494e2"/>
    <path id="Path_37790" data-name="Path 37790" d="M449.538,203.864a2.945,2.945,0,1,1-2.946-2.946A2.944,2.944,0,0,1,449.538,203.864Z" transform="translate(-254.99 -168.189)" fill="#8494e2"/>
    <path id="Path_37791" data-name="Path 37791" d="M385.629,214.948A2.945,2.945,0,1,1,382.686,212,2.942,2.942,0,0,1,385.629,214.948Z" transform="translate(-379.74 -146.553)" fill="#8494e2"/>
    <path id="Path_37792" data-name="Path 37792" d="M396.284,214.948A2.946,2.946,0,1,1,393.338,212,2.946,2.946,0,0,1,396.284,214.948Z" transform="translate(-358.947 -146.553)" fill="#8494e2"/>
    <path id="Path_37793" data-name="Path 37793" d="M406.935,214.948A2.946,2.946,0,1,1,403.989,212,2.944,2.944,0,0,1,406.935,214.948Z" transform="translate(-338.156 -146.553)" fill="#8494e2"/>
    <path id="Path_37794" data-name="Path 37794" d="M417.586,214.948A2.946,2.946,0,1,1,414.64,212,2.944,2.944,0,0,1,417.586,214.948Z" transform="translate(-317.366 -146.553)" fill="#8494e2"/>
    <path id="Path_37795" data-name="Path 37795" d="M428.236,214.948A2.945,2.945,0,1,1,425.29,212,2.946,2.946,0,0,1,428.236,214.948Z" transform="translate(-296.571 -146.553)" fill="#8494e2"/>
    <path id="Path_37796" data-name="Path 37796" d="M438.889,214.948A2.946,2.946,0,1,1,435.943,212,2.944,2.944,0,0,1,438.889,214.948Z" transform="translate(-275.782 -146.553)" fill="#8494e2"/>
    <path id="Path_37797" data-name="Path 37797" d="M449.538,214.948A2.945,2.945,0,1,1,446.592,212,2.944,2.944,0,0,1,449.538,214.948Z" transform="translate(-254.99 -146.553)" fill="#8494e2"/>
    <path id="Path_37798" data-name="Path 37798" d="M385.629,226.035a2.945,2.945,0,1,1-2.943-2.946A2.942,2.942,0,0,1,385.629,226.035Z" transform="translate(-379.74 -124.911)" fill="#8494e2"/>
    <path id="Path_37799" data-name="Path 37799" d="M396.284,226.035a2.946,2.946,0,1,1-2.946-2.946A2.946,2.946,0,0,1,396.284,226.035Z" transform="translate(-358.947 -124.911)" fill="#8494e2"/>
    <path id="Path_37800" data-name="Path 37800" d="M406.935,226.035a2.946,2.946,0,1,1-2.946-2.946A2.944,2.944,0,0,1,406.935,226.035Z" transform="translate(-338.156 -124.911)" fill="#8494e2"/>
    <path id="Path_37801" data-name="Path 37801" d="M417.586,226.035a2.946,2.946,0,1,1-2.946-2.946A2.944,2.944,0,0,1,417.586,226.035Z" transform="translate(-317.366 -124.911)" fill="#8494e2"/>
    <path id="Path_37802" data-name="Path 37802" d="M428.236,226.035a2.945,2.945,0,1,1-2.946-2.946A2.946,2.946,0,0,1,428.236,226.035Z" transform="translate(-296.571 -124.911)" fill="#8494e2"/>
    <path id="Path_37803" data-name="Path 37803" d="M438.889,226.035a2.946,2.946,0,1,1-2.946-2.946A2.944,2.944,0,0,1,438.889,226.035Z" transform="translate(-275.782 -124.911)" fill="#8494e2"/>
    <path id="Path_37804" data-name="Path 37804" d="M449.538,226.035a2.945,2.945,0,1,1-2.946-2.946A2.944,2.944,0,0,1,449.538,226.035Z" transform="translate(-254.99 -124.911)" fill="#8494e2"/>
    <path id="Path_37805" data-name="Path 37805" d="M385.629,237.119a2.945,2.945,0,1,1-2.943-2.946A2.942,2.942,0,0,1,385.629,237.119Z" transform="translate(-379.74 -103.275)" fill="#8494e2"/>
    <path id="Path_37806" data-name="Path 37806" d="M396.284,237.119a2.946,2.946,0,1,1-2.946-2.946A2.946,2.946,0,0,1,396.284,237.119Z" transform="translate(-358.947 -103.275)" fill="#8494e2"/>
    <path id="Path_37807" data-name="Path 37807" d="M406.935,237.119a2.946,2.946,0,1,1-2.946-2.946A2.944,2.944,0,0,1,406.935,237.119Z" transform="translate(-338.156 -103.275)" fill="#8494e2"/>
    <path id="Path_37808" data-name="Path 37808" d="M417.586,237.119a2.946,2.946,0,1,1-2.946-2.946A2.944,2.944,0,0,1,417.586,237.119Z" transform="translate(-317.366 -103.275)" fill="#8494e2"/>
    <path id="Path_37809" data-name="Path 37809" d="M428.236,237.119a2.945,2.945,0,1,1-2.946-2.946A2.946,2.946,0,0,1,428.236,237.119Z" transform="translate(-296.571 -103.275)" fill="#8494e2"/>
    <path id="Path_37810" data-name="Path 37810" d="M438.889,237.119a2.946,2.946,0,1,1-2.946-2.946A2.944,2.944,0,0,1,438.889,237.119Z" transform="translate(-275.782 -103.275)" fill="#8494e2"/>
    <path id="Path_37811" data-name="Path 37811" d="M449.538,237.119a2.945,2.945,0,1,1-2.946-2.946A2.944,2.944,0,0,1,449.538,237.119Z" transform="translate(-254.99 -103.275)" fill="#8494e2"/>
    <path id="Path_37812" data-name="Path 37812" d="M385.629,248.2a2.945,2.945,0,1,1-2.943-2.943A2.944,2.944,0,0,1,385.629,248.2Z" transform="translate(-379.74 -81.633)" fill="#8494e2"/>
    <path id="Path_37813" data-name="Path 37813" d="M396.284,248.2a2.946,2.946,0,1,1-2.946-2.943A2.949,2.949,0,0,1,396.284,248.2Z" transform="translate(-358.947 -81.633)" fill="#8494e2"/>
    <path id="Path_37814" data-name="Path 37814" d="M406.935,248.2a2.946,2.946,0,1,1-2.946-2.943A2.947,2.947,0,0,1,406.935,248.2Z" transform="translate(-338.156 -81.633)" fill="#8494e2"/>
    <path id="Path_37815" data-name="Path 37815" d="M417.586,248.2a2.946,2.946,0,1,1-2.946-2.943A2.947,2.947,0,0,1,417.586,248.2Z" transform="translate(-317.366 -81.633)" fill="#8494e2"/>
    <path id="Path_37816" data-name="Path 37816" d="M428.236,248.2a2.945,2.945,0,1,1-2.946-2.943A2.949,2.949,0,0,1,428.236,248.2Z" transform="translate(-296.571 -81.633)" fill="#8494e2"/>
    <path id="Path_37817" data-name="Path 37817" d="M438.889,248.2a2.946,2.946,0,1,1-2.946-2.943A2.947,2.947,0,0,1,438.889,248.2Z" transform="translate(-275.782 -81.633)" fill="#8494e2"/>
    <path id="Path_37818" data-name="Path 37818" d="M449.538,248.2a2.945,2.945,0,1,1-2.946-2.943A2.947,2.947,0,0,1,449.538,248.2Z" transform="translate(-254.99 -81.633)" fill="#8494e2"/>
    <path id="Path_37819" data-name="Path 37819" d="M385.629,259.287a2.945,2.945,0,1,1-2.943-2.943A2.944,2.944,0,0,1,385.629,259.287Z" transform="translate(-379.74 -59.998)" fill="#8494e2"/>
    <path id="Path_37820" data-name="Path 37820" d="M396.284,259.287a2.946,2.946,0,1,1-2.946-2.943A2.949,2.949,0,0,1,396.284,259.287Z" transform="translate(-358.947 -59.998)" fill="#8494e2"/>
    <path id="Path_37821" data-name="Path 37821" d="M406.935,259.287a2.946,2.946,0,1,1-2.946-2.943A2.947,2.947,0,0,1,406.935,259.287Z" transform="translate(-338.156 -59.998)" fill="#8494e2"/>
    <path id="Path_37822" data-name="Path 37822" d="M417.586,259.287a2.946,2.946,0,1,1-2.946-2.943A2.947,2.947,0,0,1,417.586,259.287Z" transform="translate(-317.366 -59.998)" fill="#8494e2"/>
    <path id="Path_37823" data-name="Path 37823" d="M428.236,259.287a2.945,2.945,0,1,1-2.946-2.943A2.949,2.949,0,0,1,428.236,259.287Z" transform="translate(-296.571 -59.998)" fill="#8494e2"/>
    <path id="Path_37824" data-name="Path 37824" d="M438.889,259.287a2.946,2.946,0,1,1-2.946-2.943A2.947,2.947,0,0,1,438.889,259.287Z" transform="translate(-275.782 -59.998)" fill="#8494e2"/>
    <path id="Path_37825" data-name="Path 37825" d="M449.538,259.287a2.945,2.945,0,1,1-2.946-2.943A2.947,2.947,0,0,1,449.538,259.287Z" transform="translate(-254.99 -59.998)" fill="#8494e2"/>
  </g>
</svg>
