<svg xmlns="http://www.w3.org/2000/svg"
    xmlns:xlink="http://www.w3.org/1999/xlink" width="1366.078" height="966.682" viewBox="0 0 1366.078 966.682">
    <defs>
        <linearGradient id="linear-gradient" x1="0.028" y1="0.241" x2="0.515" y2="1.114" gradientUnits="objectBoundingBox">
            <stop offset="0" stop-color="#313457"/>
            <stop offset="0" stop-color="#17181f"/>
            <stop offset="0.913" stop-color="#313457"/>
            <stop offset="1" stop-color="#0a0a11"/>
        </linearGradient>
        <clipPath id="clip-path">
            <path id="Union_5" data-name="Union 5" d="M0,914.876V662.882H0V0H1357.521V662.882h5.3s7.32,52.326,0,101.9S1248.647,821.239,1185.7,775.8s-122.962-74.359-300.085,48.2-311.8,26.164-458.179,0S267.881,927.269,200.545,958.941c-11.647,5.478-25.255,7.743-39.814,7.742C91.122,966.677,0,914.876,0,914.876Z" transform="translate(-180.389 1161.574)" opacity="0.23" fill="url(#linear-gradient)"/>
        </clipPath>
    </defs>
    <g id="question" transform="translate(180.389 -1161.574)" clip-path="url(#clip-path)">
        <g id="undraw_searching_p-5-ux" transform="translate(-137.634 1161.574)">
            <rect id="Rectangle_165" data-name="Rectangle 165" width="11.399" height="470.72" transform="translate(1111.967 470.864)" fill="#3f3d56"/>
            <path id="Path_38324" data-name="Path 38324" d="M1959,759.905c.725,164.6-110.047,298.57-110.047,298.57s-111.949-132.9-112.674-297.5,110.046-298.57,110.046-298.57S1958.268,595.306,1959,759.905Z" transform="translate(-730.432 -229.054)" fill="#3f3d56"/>
            <rect id="Rectangle_166" data-name="Rectangle 166" width="5.863" height="242.102" transform="translate(889.579 692.345)" fill="#3f3d56"/>
            <path id="Path_38325" data-name="Path 38325" d="M1571.306,1142.566c.373,84.657-56.6,153.562-56.6,153.562s-57.578-68.352-57.951-153.009,56.6-153.562,56.6-153.562S1570.932,1057.909,1571.306,1142.566Z" transform="translate(-621.756 -419.368)" fill="#3f3d56"/>
            <ellipse id="Ellipse_12" data-name="Ellipse 12" cx="158.844" cy="25.454" rx="158.844" ry="25.454" transform="translate(852.158 915.773)" fill="#3f3d56"/>
            <path id="Path_38326" data-name="Path 38326" d="M1700.094,627.685c-13.458-23.772-40.083-24.88-40.083-24.88s-25.944-3.469-42.588,32.737c-15.512,33.746-36.922,66.329-3.447,74.229l6.047-19.675,3.745,21.14a125.294,125.294,0,0,0,14.323.256c35.849-1.21,69.991.354,68.891-13.095C1705.522,680.517,1713.043,650.557,1700.094,627.685Z" transform="translate(-675.991 -279.708)" fill="#2f2e41"/>
            <path id="Path_38327" data-name="Path 38327" d="M1686.857,706.377s17.392,25.454,6.957,46.06,24.349,42.424,24.349,42.424l25.508-58.182s-30.146-20.606-22.029-40Z" transform="translate(-711.218 -313.632)" fill="#fbbebe"/>
            <ellipse id="Ellipse_13" data-name="Ellipse 13" cx="30.146" cy="31.515" rx="30.146" ry="31.515" transform="translate(957.088 340.623)" fill="#fbbebe"/>
            <path id="Path_38328" data-name="Path 38328" d="M1535.138,698.28l25.193-33.98s8.87-35.618,21.718-33.812-5.074,42.715-5.074,42.715l-25.032,37.613Z" transform="translate(-652.231 -289.711)" fill="#fbbebe"/>
            <path id="Path_38329" data-name="Path 38329" d="M1653.157,1344.828l8.116,44.849,17.392,4.848-4.638-53.333Z" transform="translate(-642.734 -484.206)" fill="#fbbebe"/>
            <path id="Path_38330" data-name="Path 38330" d="M1939.6,1265.524l31.305,44.849,12.754,6.061,10.435-18.182-31.305-42.424Z" transform="translate(-754.102 -453.387)" fill="#fbbebe"/>
            <path id="Path_38331" data-name="Path 38331" d="M1693.65,792.589l-19.341-26.617s-37.472,7.223-40.95,10.86,9.275,70.3,9.275,70.3,2.319,18.182,12.754,27.879l10.435,7.273,85.8-18.182,3.226-39.91a107.7,107.7,0,0,0-26.415-80.09h0l-14.929,2.134Z" transform="translate(-690.185 -330.753)" fill="#575a89"/>
            <path id="Path_38332" data-name="Path 38332" d="M1587.486,768.983l-5.8-2.424-26.667-2.424s-9.275-2.424-6.957-7.273,4.638-6.061,0-7.273-5.8-2.424-4.638-6.061,8.116-10.909,8.116-10.909l-19.71-16.97s-1.067.789-2.791,2.248c-9.786,8.283-40.751,38.169-18.079,68.055,26.667,35.151,57.972,55.757,83.48,48.485Z" transform="translate(-639.674 -320.48)" fill="#575a89"/>
            <path id="Path_38333" data-name="Path 38333" d="M1678.186,944.026V961s-10.435,20.606-6.957,40,4.638,29.091,4.638,29.091a172.266,172.266,0,0,0,8.116,48.485c8.116,24.242-18.551,183.03,15.073,185.454s52.175,4.849,62.61-7.273-17.392-220.605-17.392-220.605,95.075,207.272,114.785,198.787,69.567-27.879,63.77-38.788-151.888-253.333-151.888-253.333l-4.638-10.909Z" transform="translate(-704.867 -398.554)" fill="#2f2e41"/>
            <path id="Path_38334" data-name="Path 38334" d="M1755.6,1500.942s-18.551-1.212-18.551,4.849-9.276,26.667-9.276,26.667-6.957,24.243,11.594,21.818,30.146-24.243,30.146-24.243L1764.88,1507Z" transform="translate(-726.631 -603.956)" fill="#2f2e41"/>
            <path id="Path_38335" data-name="Path 38335" d="M2081.28,1427.722s-16.232-10.909-15.073-3.637,2.319,26.667,10.435,27.879,32.464,8.485,33.624,10.909,28.986,12.121,28.986-3.636-17.392-27.879-17.392-27.879L2102.15,1415.6s-12.754-1.212-15.073,7.272S2081.28,1427.722,2081.28,1427.722Z" transform="translate(-858.684 -573.16)" fill="#2f2e41"/>
            <ellipse id="Ellipse_14" data-name="Ellipse 14" cx="19.251" cy="20.126" rx="19.251" ry="20.126" transform="translate(968.028 303.09)" fill="#2f2e41"/>
            <path id="Path_38336" data-name="Path 38336" d="M1668.511,583.384c0-10.292,7.431-18.927,17.223-20.012a18.6,18.6,0,0,0-2.025-.113c-10.632,0-19.251,9.011-19.251,20.126s8.619,20.126,19.251,20.126a18.611,18.611,0,0,0,2.026-.113C1675.944,602.313,1668.512,593.679,1668.511,583.384Z" transform="translate(-702.51 -265.463)" fill="#2f2e41"/>
            <path id="Path_38337" data-name="Path 38337" d="M1621.185,532.862l-26.3-14.4-36.326,5.893-7.516,34.7,18.709-.753,5.227-12.748v12.538l8.632-.347,5.01-20.3,3.132,21.606,30.688-.654Z" transform="translate(-603.032 -187.177)" fill="#2f2e41"/>
            <path id="Path_38338" data-name="Path 38338" d="M1707.2,942.945l-40.566,1.147s-34.614,7.041-32.672-7.565,35.71-9.5,35.71-9.5l36.963-5.9Z" transform="translate(-690.624 -394.666)" fill="#fbbebe"/>
            <path id="Path_38339" data-name="Path 38339" d="M1778.961,740.829a8.644,8.644,0,0,1,9.549,6.216c7.942,26.162,32.407,113.713,8.1,125.724-28.631,14.147-49.524,13.525-49.524,13.525L1735.9,857.51l10.18-9.988,10.869-73.061,5.208-30.97Z" transform="translate(-730.286 -329.534)" fill="#575a89"/>
            <path id="Path_38340" data-name="Path 38340" d="M1674.663,719.931l-4.638,48.485-40.58,18.182,45.218-10.909Z" transform="translate(-633.515 -259.914)" opacity="0.4"/>
            <path id="Path_38341" data-name="Path 38341" d="M1425.006,566.637h0a54.514,54.514,0,0,1,31.714,24.084l3.792,6.14.19.254,66.535,20.353a5.1,5.1,0,0,1,3.317,6.2l-5.165,19.8a5.043,5.043,0,0,1-2.286,3.076,4.665,4.665,0,0,1-3.7.473l-66.552-19.447v0l-6.684,2.642a57.283,57.283,0,0,1-38.4,1.365h0Z" transform="translate(-602.71 -266.683)" fill="#3f3d56"/>
            <path id="Path_38385" data-name="Path 38385" d="M4.233-.05c2.338-.027,4.191,3.373,4.14,7.6s-1.988,7.668-4.326,7.7-4.191-3.373-4.14-7.6S1.9-.022,4.233-.05Z" transform="translate(876.6 356.974) rotate(-73.69)" fill="#575a89"/>
            <ellipse id="Ellipse_16" data-name="Ellipse 16" cx="2.793" cy="2.92" rx="2.793" ry="2.92" transform="translate(886.174 353.612)" fill="#3f3d56"/>
            <path id="Path_38384" data-name="Path 38384" d="M33.908-.434c18.727-.24,33.82,6.188,33.712,14.358S52.242,28.91,33.515,29.15-.3,22.961-.2,14.792,15.181-.194,33.908-.434Z" transform="translate(789.794 360.349) rotate(-72.034)" fill="#ff7f01"/>
            <path id="Path_38342" data-name="Path 38342" d="M1427.183,603.552c5.346-17.236,3.892-33.3-3.143-36.794a6.565,6.565,0,0,1,1.247.289c7.738,2.623,9.513,19.25,3.965,37.138s-16.319,30.262-24.056,27.639a6.635,6.635,0,0,1-.821-.344C1411.985,632.492,1421.927,620.5,1427.183,603.552Z" transform="translate(-601.391 -266.726)" opacity="0.4"/>
            <path id="Path_38343" data-name="Path 38343" d="M913.781,397.224l-151-122.456a1013.65,1013.65,0,0,1-76.773-69.558c-43.045-42.894-101.479-77.188-169.513-95.447C351.2,65.4,220.255,144.06,160.7,259.555,69.686,436.044-.061,722.438,403.478,569.991c88.253-33.34,177.587-36.884,245.323-54.445L894.07,462.678Z" transform="translate(-90.61 -97.206)" fill="#ff7f01"/>
            <ellipse id="Ellipse_18" data-name="Ellipse 18" cx="8.116" cy="8.485" rx="8.116" ry="8.485" transform="translate(361.712 76.988)" fill="#f2f2f2"/>
            <path id="Path_38344" data-name="Path 38344" d="M860.078,163.211h-2.113V161h-.413v2.208H855.44v.432h2.112v2.208h.413v-2.208h2.113Z" transform="translate(-332.588 -58.126)" fill="#f2f2f2"/>
            <path id="Path_38345" data-name="Path 38345" d="M1207.225,451.551h-2.112v-2.209h-.413v2.209h-2.113v.431h2.113v2.208h.413v-2.208h2.112Z" transform="translate(-467.556 -162.225)" fill="#f2f2f2"/>
            <path id="Path_38346" data-name="Path 38346" d="M1182.564,540.709h-2.113V538.5h-.413v2.208h-2.113v.432h2.113v2.208h.413v-2.208h2.113Z" transform="translate(-457.968 -194.413)" fill="#f2f2f2"/>
            <path id="Path_38347" data-name="Path 38347" d="M122.154,616.588h-2.112V614.38h-.413v2.208h-2.113v.431h2.113v2.208h.413V617.02h2.112Z" transform="translate(-45.689 -221.807)" fill="#f2f2f2"/>
            <path id="Path_38348" data-name="Path 38348" d="M273.912,203.047H271.8v-2.209h-.413v2.209h-2.112v.431h2.112v2.208h.413v-2.208h2.112Z" transform="translate(-104.691 -72.508)" fill="#f2f2f2"/>
            <path id="Path_38349" data-name="Path 38349" d="M863.872,555.885h-2.113v-2.208h-.413v2.208h-2.113v.432h2.113v2.208h.413v-2.208h2.113Z" transform="translate(-334.063 -199.892)" fill="#f2f2f2"/>
            <path id="Path_38350" data-name="Path 38350" d="M501.549,81.641h-2.113V79.432h-.413v2.208h-2.113v.432h2.113v2.208h.413V82.072h2.113Z" transform="translate(-193.195 -28.677)" fill="#f2f2f2"/>
            <path id="Path_38351" data-name="Path 38351" d="M594.764,453.216l-2.632.424c.823,5.5,1.472,11.127,1.948,16.691l2.655-.242C596.26,464.453,595.6,458.78,594.764,453.216Z" transform="translate(-285.598 -225.735)" fill="#e6e6e6"/>
            <path id="Path_38352" data-name="Path 38352" d="M583.035,401.353l-2.551.812c1.542,5.333,2.922,10.8,4.093,16.242l2.609-.618C585.992,412.286,584.589,406.759,583.035,401.353Z" transform="translate(-281.069 -207.011)" fill="#e6e6e6"/>
            <path id="Path_38353" data-name="Path 38353" d="M564.318,351.614l-2.423,1.164c2.226,5.079,4.313,10.291,6.2,15.5l2.493-.982C568.677,362.026,566.578,356.741,564.318,351.614Z" transform="translate(-273.842 -189.054)" fill="#e6e6e6"/>
            <path id="Path_38354" data-name="Path 38354" d="M539.009,304.987l-2.249,1.491c2.864,4.7,5.612,9.576,8.162,14.461l2.342-1.333C544.69,314.659,541.907,309.738,539.009,304.987Z" transform="translate(-264.069 -172.22)" fill="#e6e6e6"/>
            <path id="Path_38355" data-name="Path 38355" d="M507.545,262.248l-2.029,1.806c3.455,4.242,6.818,8.679,9.994,13.164l2.133-1.661C514.444,271.023,511.047,266.539,507.545,262.248Z" transform="translate(-251.922 -156.79)" fill="#e6e6e6"/>
            <path id="Path_38356" data-name="Path 38356" d="M470.565,224.194l-1.774,2.073c3.989,3.721,7.9,7.636,11.618,11.624l1.913-1.952C478.553,231.9,474.6,227.952,470.565,224.194Z" transform="translate(-237.644 -143.052)" fill="#e6e6e6"/>
            <path id="Path_38357" data-name="Path 38357" d="M428.78,191.528l-1.5,2.3c4.429,3.115,8.812,6.436,13.021,9.867l1.646-2.194C437.685,198.037,433.256,194.68,428.78,191.528Z" transform="translate(-221.506 -131.259)" fill="#e6e6e6"/>
            <path id="Path_38358" data-name="Path 38358" d="M391.546,168.841v3.152c2.771,1.515,5.519,3.1,8.209,4.727l1.333-2.412Q396.392,171.472,391.546,168.841Z" transform="translate(-207.611 -123.068)" fill="#e6e6e6"/>
            <path id="Path_38359" data-name="Path 38359" d="M596.732,506.884l2.665-.051c.049,2.813.053,5.642.011,8.407l-2.665-.044C596.783,512.463,596.78,509.665,596.732,506.884Z" transform="translate(-287.386 -245.092)" fill="#e6e6e6"/>
            <path id="Path_38360" data-name="Path 38360" d="M338.672,826.921l-2.632.424c.823,5.5,1.473,11.127,1.948,16.691l2.655-.242C340.168,838.157,339.507,832.485,338.672,826.921Z" transform="translate(-186.031 -360.652)" fill="#e6e6e6"/>
            <path id="Path_38361" data-name="Path 38361" d="M326.943,775.058l-2.551.812c1.542,5.333,2.922,10.8,4.093,16.242l2.609-.618C329.9,785.991,328.5,780.464,326.943,775.058Z" transform="translate(-181.503 -341.928)" fill="#e6e6e6"/>
            <path id="Path_38362" data-name="Path 38362" d="M308.225,725.319l-2.423,1.164c2.226,5.079,4.313,10.291,6.2,15.5L314.5,741C312.585,735.731,310.486,730.446,308.225,725.319Z" transform="translate(-174.275 -323.971)" fill="#e6e6e6"/>
            <path id="Path_38363" data-name="Path 38363" d="M282.917,678.691l-2.249,1.491c2.864,4.7,5.612,9.576,8.163,14.461l2.342-1.333C288.6,688.364,285.815,683.443,282.917,678.691Z" transform="translate(-164.503 -307.137)" fill="#e6e6e6"/>
            <path id="Path_38364" data-name="Path 38364" d="M251.453,635.952l-2.029,1.806c3.455,4.243,6.818,8.679,9.994,13.164l2.133-1.661C258.352,644.728,254.955,640.243,251.453,635.952Z" transform="translate(-152.356 -291.708)" fill="#e6e6e6"/>
            <path id="Path_38365" data-name="Path 38365" d="M214.473,597.9l-1.774,2.073c3.988,3.721,7.9,7.636,11.618,11.624l1.913-1.951C222.461,605.608,218.507,601.656,214.473,597.9Z" transform="translate(-138.077 -277.969)" fill="#e6e6e6"/>
            <path id="Path_38366" data-name="Path 38366" d="M172.688,565.233l-1.5,2.3c4.429,3.115,8.812,6.436,13.021,9.867l1.646-2.194C181.593,571.742,177.164,568.384,172.688,565.233Z" transform="translate(-121.94 -266.176)" fill="#e6e6e6"/>
            <path id="Path_38367" data-name="Path 38367" d="M135.453,542.545V545.7c2.771,1.515,5.519,3.1,8.209,4.727L145,548.012Q140.3,545.175,135.453,542.545Z" transform="translate(-108.045 -257.985)" fill="#e6e6e6"/>
            <path id="Path_38368" data-name="Path 38368" d="M340.64,880.588l2.665-.051c.049,2.813.053,5.642.011,8.407l-2.665-.044C340.691,886.167,340.688,883.37,340.64,880.588Z" transform="translate(-187.82 -380.009)" fill="#e6e6e6"/>
            <path id="Path_38369" data-name="Path 38369" d="M1215.075,639.12l-2.632.424c.823,5.5,1.473,11.127,1.948,16.691l2.655-.243C1216.571,650.356,1215.911,644.684,1215.075,639.12Z" transform="translate(-526.77 -292.851)" fill="#e6e6e6"/>
            <path id="Path_38370" data-name="Path 38370" d="M1203.347,587.257l-2.551.812c1.542,5.333,2.922,10.8,4.093,16.242l2.609-.618C1206.3,598.19,1204.9,592.663,1203.347,587.257Z" transform="translate(-522.242 -274.127)" fill="#e6e6e6"/>
            <path id="Path_38371" data-name="Path 38371" d="M1184.629,537.518l-2.423,1.164c2.226,5.079,4.313,10.291,6.2,15.5l2.493-.982C1188.988,547.93,1186.89,542.645,1184.629,537.518Z" transform="translate(-515.014 -256.17)" fill="#e6e6e6"/>
            <path id="Path_38372" data-name="Path 38372" d="M1159.32,490.89l-2.249,1.491c2.864,4.7,5.612,9.576,8.163,14.461l2.342-1.333C1165,500.563,1162.219,495.642,1159.32,490.89Z" transform="translate(-505.242 -239.336)" fill="#e6e6e6"/>
            <path id="Path_38373" data-name="Path 38373" d="M1127.857,448.151l-2.029,1.806c3.455,4.242,6.818,8.679,9.994,13.164l2.133-1.661C1134.755,456.927,1131.358,452.442,1127.857,448.151Z" transform="translate(-493.095 -223.906)" fill="#e6e6e6"/>
            <path id="Path_38374" data-name="Path 38374" d="M1090.876,410.1l-1.774,2.073c3.989,3.721,7.9,7.636,11.618,11.624l1.913-1.952C1098.865,417.807,1094.911,413.856,1090.876,410.1Z" transform="translate(-478.816 -210.168)" fill="#e6e6e6"/>
            <path id="Path_38375" data-name="Path 38375" d="M1049.092,377.432l-1.5,2.3c4.429,3.115,8.812,6.436,13.021,9.867l1.646-2.194C1058,383.941,1053.567,380.584,1049.092,377.432Z" transform="translate(-462.679 -198.375)" fill="#e6e6e6"/>
            <path id="Path_38376" data-name="Path 38376" d="M1011.857,354.744V357.9c2.771,1.515,5.519,3.1,8.209,4.727l1.333-2.412Q1016.7,357.374,1011.857,354.744Z" transform="translate(-448.784 -190.184)" fill="#e6e6e6"/>
            <path id="Path_38377" data-name="Path 38377" d="M1217.044,692.787l2.665-.051c.049,2.813.053,5.642.011,8.407l-2.665-.044C1217.095,698.367,1217.091,695.569,1217.044,692.787Z" transform="translate(-528.559 -312.208)" fill="#e6e6e6"/>
            <path id="Path_38378" data-name="Path 38378" d="M280.464,378.035H278.5v-2.056h-.384v2.056h-1.966v.4h1.966v2.056h.384v-2.056h1.965Z" transform="translate(-107.364 -135.738)" fill="#f2f2f2"/>
            <path id="Path_38379" data-name="Path 38379" d="M243.4,572.2H241.43v-2.056h-.384V572.2H239.08v.4h1.966v2.055h.384V572.6H243.4Z" transform="translate(-92.952 -205.839)" fill="#f2f2f2"/>
            <path id="Path_38380" data-name="Path 38380" d="M134.628,742.377h-1.966v-2.055h-.384v2.055h-1.965v.4h1.965v2.056h.384v-2.056h1.966Z" transform="translate(-50.664 -267.276)" fill="#f2f2f2"/>
            <path id="Path_38381" data-name="Path 38381" d="M515.065,493.856c-39.278-61.038-30.018-142.917,21.792-192.7s130.633-52.529,185.5-6.472S791.692,421.8,756.394,485.436s-109.769,90.781-175.261,63.876c-5.657,21.109-24.238,35.559-45.2,35.154S496.907,568.9,492,547.591,496.573,504.19,515.065,493.856Z" transform="translate(-246.168 -156.665)" fill="#3f3d56"/>
            <path id="Path_38382" data-name="Path 38382" d="M689.093,361.714c32.643,0,55.1,18.929,55.1,46.138,0,18.019-8.357,30.486-24.461,40.405-15.146,9.191-20.282,15.925-20.282,27.574h0a7.038,7.038,0,0,1-6.877,7.189H675.887a7.025,7.025,0,0,1-6.873-6.939l-.03-.888c-1.48-18.747,4.788-30.395,20.543-40.041,14.711-9.191,20.891-15.016,20.891-26.3S699.974,389.288,687,389.288c-9.858,0-17.66,5.017-21.239,13.207a15.322,15.322,0,0,1-14.043,9.18h0c-11.307,0-18.776-12.57-13.489-23.019C646.6,372.128,664.247,361.714,689.093,361.714ZM666.2,517.693a18.672,18.672,0,1,1,18.628,18.747A18.627,18.627,0,0,1,666.2,517.693Z" transform="translate(-302.848 -192.7)" fill="#ff7f01"/>
        </g>
    </g>
</svg>
